<?xml version="1.0" encoding="UTF-8"?>
<svg id="Capa_1" data-name="Capa 1" xmlns="http://www.w3.org/2000/svg" xmlns:xlink="http://www.w3.org/1999/xlink" viewBox="0 0 225.76 225.76">
  <defs>
    <style>
      .cls-1 {
        fill: #fff;
      }

      .cls-2 {
        fill: url(#Degradado_sin_nombre_4);
      }
    </style>
    <linearGradient id="Degradado_sin_nombre_4" data-name="Degradado sin nombre 4" x1="0" y1="112.88" x2="225.76" y2="112.88" gradientUnits="userSpaceOnUse">
      <stop offset="0" stop-color="#bc1f36"/>
      <stop offset="1" stop-color="#03045e"/>
    </linearGradient>
  </defs>
  <path class="cls-2" d="M112.88,225.76C50.64,225.76,0,175.12,0,112.88S50.64,0,112.88,0s112.88,50.64,112.88,112.88-50.64,112.88-112.88,112.88ZM112.88,8.36C55.25,8.36,8.36,55.25,8.36,112.88s46.89,104.52,104.52,104.52,104.52-46.89,104.52-104.52S170.51,8.36,112.88,8.36Z"/>
  <path class="cls-1" d="M192.49,104.12v17.53c0,1.63-1.32,2.96-2.96,2.96h-63.31c-.89,0-1.61.72-1.61,1.61v63.32c0,1.63-1.32,2.96-2.96,2.96h-17.54c-1.63,0-2.96-1.32-2.96-2.96v-63.32c0-.89-.72-1.61-1.61-1.61h-63.31c-1.63,0-2.96-1.32-2.96-2.96v-17.53c0-1.63,1.32-2.96,2.96-2.96h63.31c.89,0,1.61-.72,1.61-1.61v-63.32c0-1.63,1.32-2.96,2.96-2.96h17.54c1.63,0,2.96,1.32,2.96,2.96v63.32c0,.89.72,1.61,1.61,1.61h63.31c1.64,0,2.96,1.33,2.96,2.96Z"/>
</svg>