<?xml version="1.0" encoding="UTF-8"?>
<svg id="Capa_1" data-name="Capa 1" xmlns="http://www.w3.org/2000/svg" xmlns:xlink="http://www.w3.org/1999/xlink" viewBox="0 0 238.98 238.98">
  <defs>
    <style>
      .cls-1 {
        fill: #fff;
      }

      .cls-2 {
        fill: url(#Degradado_sin_nombre_4);
      }
    </style>
    <linearGradient id="Degradado_sin_nombre_4" data-name="Degradado sin nombre 4" x1="0" y1="119.49" x2="238.98" y2="119.49" gradientUnits="userSpaceOnUse">
      <stop offset="0" stop-color="#bc1f36"/>
      <stop offset="1" stop-color="#03045e"/>
    </linearGradient>
  </defs>
  <path class="cls-2" d="M119.49,238.98C53.6,238.98,0,185.38,0,119.49S53.6,0,119.49,0s119.49,53.6,119.49,119.49-53.6,119.49-119.49,119.49ZM119.49,8.85C58.48,8.85,8.85,58.48,8.85,119.49s49.63,110.64,110.64,110.64,110.64-49.63,110.64-110.64S180.5,8.85,119.49,8.85Z"/>
  <path class="cls-1" d="M194.38,140.53l-15.96-13.6c.35-2.59.53-5.25.53-7.94,0-3.13-.24-6.2-.71-9.2l15.17-12.56c1.66-1.37,2.11-3.74,1.06-5.62l-13.54-24.33c-1.05-1.88-3.3-2.76-5.34-2.07l-19.85,6.67c-4.34-3.34-9.15-6.09-14.32-8.14l-3.54-19.06c-.39-2.13-2.25-3.67-4.41-3.67h-27.84c-2.16,0-4.01,1.54-4.41,3.67l-3.54,19.06c-5.42,2.14-10.45,5.06-14.95,8.62l-19.57-7.12c-2.03-.74-4.29.07-5.39,1.94l-14.14,23.99c-1.09,1.86-.71,4.23.92,5.65l16.14,14.06c-.38,2.65-.56,5.37-.56,8.12s.18,5.27.52,7.83l-16.02,13.79c-1.64,1.41-2.04,3.78-.95,5.65l14.01,24.07c1.09,1.86,3.35,2.69,5.38,1.96l19.35-6.91c4.68,3.75,9.93,6.81,15.61,9.01l3.05,19.1c.34,2.14,2.15,3.72,4.31,3.77l27.83.71c2.16.05,4.05-1.44,4.5-3.55l4.33-20.43c5.27-2.16,10.16-5.06,14.54-8.56l19.5,6.87c2.03.72,4.29-.12,5.37-1.99l13.89-24.13c1.08-1.88.67-4.24-.98-5.65ZM119.55,152.23c-18.35,0-33.24-14.88-33.24-33.24s14.89-33.24,33.24-33.24,33.24,14.88,33.24,33.24-14.88,33.24-33.24,33.24Z"/>
</svg>