<?xml version="1.0" encoding="UTF-8"?>
<svg id="Capa_1" data-name="Capa 1" xmlns="http://www.w3.org/2000/svg" xmlns:xlink="http://www.w3.org/1999/xlink" viewBox="0 0 233.2 233.2">
  <defs>
    <style>
      .cls-1 {
        fill: #fff;
      }

      .cls-2 {
        fill: url(#Degradado_sin_nombre_4);
      }
    </style>
    <linearGradient id="Degradado_sin_nombre_4" data-name="Degradado sin nombre 4" x1="0" y1="116.6" x2="233.2" y2="116.6" gradientUnits="userSpaceOnUse">
      <stop offset="0" stop-color="#bc1f36"/>
      <stop offset="1" stop-color="#03045e"/>
    </linearGradient>
  </defs>
  <path class="cls-2" d="M116.6,233.2C52.31,233.2,0,180.89,0,116.6S52.31,0,116.6,0s116.6,52.31,116.6,116.6-52.31,116.6-116.6,116.6ZM116.6,8.64C57.07,8.64,8.64,57.07,8.64,116.6s48.43,107.96,107.96,107.96,107.96-48.43,107.96-107.96S176.13,8.64,116.6,8.64Z"/>
  <path class="cls-1" d="M193.1,103.95c0,.26-.06.53-.18.78-.35.77-1.2,1.27-2.15,1.27h-14.08v67.54c0,5.05-4.71,9.18-10.47,9.18h-13.16c-4.91,0-8.88-3.98-8.88-8.88v-48.92c0-2.49-2.02-4.52-4.52-4.52h-46.11c-2.49,0-4.52,2.02-4.52,4.52v48.92c0,4.91-3.98,8.88-8.88,8.88h-13.17c-5.76,0-10.47-4.13-10.47-9.18v-67.54h-14.08c-.94,0-1.79-.51-2.15-1.27-.36-.75-.17-1.63.5-2.23l15.73-13.82,12.97-11.39,45.48-39.96c.91-.8,2.38-.8,3.3,0l45.47,39.96,12.97,11.39,15.73,13.82c.45.39.68.92.68,1.45Z"/>
</svg>