<?xml version="1.0" encoding="UTF-8"?>
<svg id="Capa_1" data-name="Capa 1" xmlns="http://www.w3.org/2000/svg" xmlns:xlink="http://www.w3.org/1999/xlink" viewBox="0 0 234.28 234.28">
  <defs>
    <style>
      .cls-1 {
        fill: #fff;
      }

      .cls-2 {
        fill: url(#Degradado_sin_nombre_4);
      }
    </style>
    <linearGradient id="Degradado_sin_nombre_4" data-name="Degradado sin nombre 4" x1="0" y1="117.14" x2="234.28" y2="117.14" gradientUnits="userSpaceOnUse">
      <stop offset="0" stop-color="#bc1f36"/>
      <stop offset="1" stop-color="#03045e"/>
    </linearGradient>
  </defs>
  <path class="cls-1" d="M192.4,160.81c2.47,6.63.88,14.09-3.87,19.33-18.03,19.9-44.06,32.42-72.97,32.42-26.85,0-51.21-10.8-68.98-28.27-5.11-5.03-7.14-12.45-5.01-19.3,7.28-23.48,25.13-42.31,47.98-50.94-11.46-8.81-18.68-22.89-18.04-38.61,1-24.56,21.5-44.25,46.09-44.31,25.59-.06,46.35,20.66,46.35,46.25,0,14.94-7.09,28.22-18.08,36.67,21.47,8.11,38.52,25.23,46.54,46.75Z"/>
  <path class="cls-2" d="M117.14,234.28C52.55,234.28,0,181.73,0,117.14S52.55,0,117.14,0s117.14,52.55,117.14,117.14-52.55,117.14-117.14,117.14ZM117.14,8.68C57.33,8.68,8.68,57.33,8.68,117.14s48.66,108.46,108.46,108.46,108.46-48.66,108.46-108.46S176.95,8.68,117.14,8.68Z"/>
</svg>