<?xml version="1.0" encoding="UTF-8"?>
<svg id="Capa_1" data-name="Capa 1" xmlns="http://www.w3.org/2000/svg" xmlns:xlink="http://www.w3.org/1999/xlink" viewBox="0 0 239 239">
  <defs>
    <style>
      .cls-1 {
        fill: #fff;
      }

      .cls-2 {
        fill: url(#Degradado_sin_nombre_4);
      }
    </style>
    <linearGradient id="Degradado_sin_nombre_4" data-name="Degradado sin nombre 4" x1="0" y1="119.5" x2="239" y2="119.5" gradientUnits="userSpaceOnUse">
      <stop offset="0" stop-color="#bc1f36"/>
      <stop offset="1" stop-color="#03045e"/>
    </linearGradient>
  </defs>
  <path class="cls-2" d="M119.5,239C53.61,239,0,185.39,0,119.5S53.61,0,119.5,0s119.5,53.61,119.5,119.5-53.61,119.5-119.5,119.5ZM119.5,8.85C58.49,8.85,8.85,58.49,8.85,119.5s49.64,110.65,110.65,110.65,110.65-49.64,110.65-110.65S180.51,8.85,119.5,8.85Z"/>
  <g>
    <path class="cls-1" d="M189.66,174.54l-29.69-29.69c7.21-10.2,11.45-22.63,11.45-36.04,0-34.51-28.1-62.61-62.61-62.61s-62.61,28.1-62.61,62.61,28.1,62.61,62.61,62.61c13.41,0,25.84-4.25,36.04-11.45l29.72,29.72c2.08,2.08,4.79,3.12,7.54,3.12s5.47-1.04,7.54-3.12c4.18-4.18,4.18-10.96,0-15.15ZM67.58,108.81c0-22.72,18.51-41.23,41.23-41.23s41.23,18.51,41.23,41.23c0,10.96-4.34,20.98-11.33,28.34,0,0,0,.03-.03.03-.46.52-.95,1.01-1.47,1.47l-.03.03c-7.39,7.02-17.38,11.36-28.37,11.36-22.72,0-41.23-18.51-41.23-41.23Z"/>
    <path class="cls-1" d="M138.68,137.18c-.46.52-.95,1.01-1.47,1.47.21-.24.46-.52.7-.76.24-.24.52-.49.76-.7Z"/>
  </g>
</svg>